{
  "accessors": [
    {
      "bufferView": 1,
      "componentType": 5126,
      "count": 161,
      "max": [
        0.83146977424621582,
        1,
        0.83146971464157104
      ],
      "min": [
        -0.83146923780441284,
        0.55557018518447876,
        -0.83146876096725464
      ],
      "type": "VEC3"
    },
    {
      "bufferView": 1,
      "byteOffset": 1932,
      "componentType": 5126,
      "count": 161,
      "max": [
        0.77301007509231567,
        1,
        0.77301007509231567
      ],
      "min": [
        -0.77301007509231567,
        0.63439297676086426,
        -0.77301007509231567
      ],
      "type": "VEC3"
    },
    {
      "bufferView": 0,
      "componentType": 5125,
      "count": 864,
      "max": [
        160
      ],
      "min": [
        0
      ],
      "type": "SCALAR"
    },
    {
      "bufferView": 1,
      "byteOffset": 3864,
      "componentType": 5126,
      "count": 161,
      "max": [
        0.83146977424621582,
        1,
        0.83146971464157104
      ],
      "min": [
        -0.83146923780441284,
        0.55557018518447876,
        -0.83146876096725464
      ],
      "type": "VEC3"
    },
    {
      "bufferView": 1,
      "byteOffset": 5796,
      "componentType": 5126,
      "count": 161,
      "max": [
        0.77301007509231567,
        1,
        0.77301007509231567
      ],
      "min": [
        -0.77301007509231567,
        0.63439297676086426,
        -0.77301007509231567
      ],
      "type": "VEC3"
    },
    {
      "bufferView": 0,
      "byteOffset": 3456,
      "componentType": 5125,
      "count": 864,
      "max": [
        160
      ],
      "min": [
        0
      ],
      "type": "SCALAR"
    },
    {
      "bufferView": 1,
      "byteOffset": 7728,
      "componentType": 5126,
      "count": 161,
      "max": [
        0.83146977424621582,
        1,
        0.83146971464157104
      ],
      "min": [
        -0.83146923780441284,
        0.55557018518447876,
        -0.83146876096725464
      ],
      "type": "VEC3"
    },
    {
      "bufferView": 1,
      "byteOffset": 9660,
      "componentType": 5126,
      "count": 161,
      "max": [
        0.77301007509231567,
        1,
        0.77301007509231567
      ],
      "min": [
        -0.77301007509231567,
        0.63439297676086426,
        -0.77301007509231567
      ],
      "type": "VEC3"
    },
    {
      "bufferView": 0,
      "byteOffset": 6912,
      "componentType": 5125,
      "count": 864,
      "max": [
        160
      ],
      "min": [
        0
      ],
      "type": "SCALAR"
    },
    {
      "bufferView": 1,
      "byteOffset": 11592,
      "componentType": 5126,
      "count": 161,
      "max": [
        0.83146977424621582,
        1,
        0.83146971464157104
      ],
      "min": [
        -0.83146923780441284,
        0.55557018518447876,
        -0.83146876096725464
      ],
      "type": "VEC3"
    },
    {
      "bufferView": 1,
      "byteOffset": 13524,
      "componentType": 5126,
      "count": 161,
      "max": [
        0.77301007509231567,
        1,
        0.77301007509231567
      ],
      "min": [
        -0.77301007509231567,
        0.63439297676086426,
        -0.77301007509231567
      ],
      "type": "VEC3"
    },
    {
      "bufferView": 0,
      "byteOffset": 10368,
      "componentType": 5125,
      "count": 864,
      "max": [
        160
      ],
      "min": [
        0
      ],
      "type": "SCALAR"
    },
    {
      "bufferView": 1,
      "byteOffset": 15456,
      "componentType": 5126,
      "count": 161,
      "max": [
        0.83146977424621582,
        1,
        0.83146971464157104
      ],
      "min": [
        -0.83146923780441284,
        0.55557018518447876,
        -0.83146876096725464
      ],
      "type": "VEC3"
    },
    {
      "bufferView": 1,
      "byteOffset": 17388,
      "componentType": 5126,
      "count": 161,
      "max": [
        0.77301007509231567,
        1,
        0.77301007509231567
      ],
      "min": [
        -0.77301007509231567,
        0.63439297676086426,
        -0.77301007509231567
      ],
      "type": "VEC3"
    },
    {
      "bufferView": 0,
      "byteOffset": 13824,
      "componentType": 5125,
      "count": 864,
      "max": [
        160
      ],
      "min": [
        0
      ],
      "type": "SCALAR"
    },
    {
      "bufferView": 1,
      "byteOffset": 19320,
      "componentType": 5126,
      "count": 161,
      "max": [
        0.83146977424621582,
        1,
        0.83146971464157104
      ],
      "min": [
        -0.83146923780441284,
        0.55557018518447876,
        -0.83146876096725464
      ],
      "type": "VEC3"
    },
    {
      "bufferView": 1,
      "byteOffset": 21252,
      "componentType": 5126,
      "count": 161,
      "max": [
        0.77301007509231567,
        1,
        0.77301007509231567
      ],
      "min": [
        -0.77301007509231567,
        0.63439297676086426,
        -0.77301007509231567
      ],
      "type": "VEC3"
    },
    {
      "bufferView": 0,
      "byteOffset": 17280,
      "componentType": 5125,
      "count": 864,
      "max": [
        160
      ],
      "min": [
        0
      ],
      "type": "SCALAR"
    },
    {
      "bufferView": 1,
      "byteOffset": 23184,
      "componentType": 5126,
      "count": 65532,
      "max": [
        0.59445053339004517,
        0.016063034534454346,
        0.24069266021251678
      ],
      "min": [
        -0.59018844366073608,
        -0.12541294097900391,
        -0.25627735257148743
      ],
      "type": "VEC3"
    },
    {
      "bufferView": 1,
      "byteOffset": 809568,
      "componentType": 5126,
      "count": 65532,
      "max": [
        1,
        1,
        1
      ],
      "min": [
        -0.99999666213989258,
        -1,
        -1
      ],
      "type": "VEC3"
    },
    {
      "bufferView": 0,
      "byteOffset": 20736,
      "componentType": 5125,
      "count": 378999,
      "max": [
        65531
      ],
      "min": [
        0
      ],
      "type": "SCALAR"
    },
    {
      "bufferView": 1,
      "byteOffset": 1595952,
      "componentType": 5126,
      "count": 801,
      "max": [
        0.2161155641078949,
        0.016063034534454346,
        0.16248565912246704
      ],
      "min": [
        -0.2149544358253479,
        0.01573103666305542,
        -0.1664523184299469
      ],
      "type": "VEC3"
    },
    {
      "bufferView": 1,
      "byteOffset": 1605564,
      "componentType": 5126,
      "count": 801,
      "max": [
        0.99998843669891357,
        1,
        0.9958307147026062
      ],
      "min": [
        -0.99999392032623291,
        -0.0013733396772295237,
        -0.99866551160812378
      ],
      "type": "VEC3"
    },
    {
      "bufferView": 0,
      "byteOffset": 1536732,
      "componentType": 5125,
      "count": 2256,
      "max": [
        800
      ],
      "min": [
        0
      ],
      "type": "SCALAR"
    },
    {
      "bufferView": 1,
      "byteOffset": 1615176,
      "componentType": 5126,
      "count": 2048,
      "max": [
        0.9708220362663269,
        1.2381108999252319,
        0.295418381690979
      ],
      "min": [
        -0.97082191705703735,
        -1.2410440444946289,
        -0.29542163014411926
      ],
      "type": "VEC3"
    },
    {
      "bufferView": 1,
      "byteOffset": 1639752,
      "componentType": 5126,
      "count": 2048,
      "max": [
        0.99999690055847168,
        1,
        1
      ],
      "min": [
        -0.99999690055847168,
        -1,
        -1
      ],
      "type": "VEC3"
    },
    {
      "bufferView": 0,
      "byteOffset": 1545756,
      "componentType": 5125,
      "count": 12288,
      "max": [
        2047
      ],
      "min": [
        0
      ],
      "type": "SCALAR"
    }
  ],
  "asset": {
    "extras": {
      "author": "David Danilyan (https://sketchfab.com/danilyan.david)",
      "license": "CC-BY-4.0 (http://creativecommons.org/licenses/by/4.0/)",
      "source": "https://sketchfab.com/3d-models/headband-49d6184fb96d47e8a39d126c622615db",
      "title": "Headband"
    },
    "generator": "Sketchfab-6.93.2",
    "version": "2.0"
  },
  "bufferViews": [
    {
      "buffer": 0,
      "byteLength": 1594908,
      "byteOffset": 0,
      "name": "floatBufferViews",
      "target": 34963
    },
    {
      "buffer": 0,
      "byteLength": 1664328,
      "byteOffset": 1594908,
      "byteStride": 12,
      "name": "floatBufferViews",
      "target": 34962
    }
  ],
  "buffers": [
    {
      "byteLength": 3259236,
      "uri": "scene.bin"
    }
  ],
  "materials": [
    {
      "doubleSided": true,
      "emissiveFactor": [
        0,
        0,
        0
      ],
      "name": "Material.002",
      "pbrMetallicRoughness": {
        "baseColorFactor": [
          0.80000000000000004,
          0.80000000000000004,
          0.80000000000000004,
          1
        ],
        "metallicFactor": 1,
        "roughnessFactor": 0.34999999999999998
      }
    },
    {
      "doubleSided": true,
      "emissiveFactor": [
        0,
        0,
        0
      ],
      "name": "Material.001",
      "pbrMetallicRoughness": {
        "baseColorFactor": [
          2.50457e-05,
          0,
          0.22658400000000001,
          1
        ],
        "metallicFactor": 0,
        "roughnessFactor": 1
      }
    }
  ],
  "meshes": [
    {
      "primitives": [
        {
          "attributes": {
            "NORMAL": 1,
            "POSITION": 0
          },
          "indices": 2,
          "material": 0,
          "mode": 4
        }
      ]
    },
    {
      "primitives": [
        {
          "attributes": {
            "NORMAL": 4,
            "POSITION": 3
          },
          "indices": 5,
          "material": 0,
          "mode": 4
        }
      ]
    },
    {
      "primitives": [
        {
          "attributes": {
            "NORMAL": 7,
            "POSITION": 6
          },
          "indices": 8,
          "material": 0,
          "mode": 4
        }
      ]
    },
    {
      "primitives": [
        {
          "attributes": {
            "NORMAL": 10,
            "POSITION": 9
          },
          "indices": 11,
          "material": 0,
          "mode": 4
        }
      ]
    },
    {
      "primitives": [
        {
          "attributes": {
            "NORMAL": 13,
            "POSITION": 12
          },
          "indices": 14,
          "material": 0,
          "mode": 4
        }
      ]
    },
    {
      "primitives": [
        {
          "attributes": {
            "NORMAL": 16,
            "POSITION": 15
          },
          "indices": 17,
          "material": 0,
          "mode": 4
        }
      ]
    },
    {
      "primitives": [
        {
          "attributes": {
            "NORMAL": 19,
            "POSITION": 18
          },
          "indices": 20,
          "material": 0,
          "mode": 4
        }
      ]
    },
    {
      "primitives": [
        {
          "attributes": {
            "NORMAL": 22,
            "POSITION": 21
          },
          "indices": 23,
          "material": 0,
          "mode": 4
        }
      ]
    },
    {
      "primitives": [
        {
          "attributes": {
            "NORMAL": 25,
            "POSITION": 24
          },
          "indices": 26,
          "material": 1,
          "mode": 4
        }
      ]
    }
  ],
  "nodes": [
    {
      "children": [
        1
      ],
      "name": "RootNode (gltf orientation matrix)",
      "rotation": [
        -0.70710678118654746,
        -0,
        -0,
        0.70710678118654757
      ]
    },
    {
      "children": [
        2
      ],
      "name": "RootNode (model correction matrix)"
    },
    {
      "children": [
        3
      ],
      "name": "root"
    },
    {
      "children": [
        4,
        6,
        8,
        10,
        12,
        14,
        16,
        19
      ],
      "matrix": [
        1,
        0,
        0,
        0,
        0,
        2.2204460492503131e-16,
        1,
        0,
        0,
        -1,
        2.2204460492503131e-16,
        0,
        0,
        0,
        0,
        1
      ],
      "name": "GLTF_SceneRootNode"
    },
    {
      "children": [
        5
      ],
      "matrix": [
        0.027185357590312469,
        -0.00052697970185046892,
        -0.011159609383005973,
        0,
        0.011172044986815824,
        0.00128231721769238,
        0.02715509767734909,
        0,
        -8.853991879390164e-10,
        -0.029358750168350902,
        0.0013863783945777398,
        0,
        0.5141826868057251,
        0.5063178539276123,
        0.75250899791717529,
        1
      ],
      "name": "Sphere.005_0"
    },
    {
      "mesh": 0,
      "name": ""
    },
    {
      "children": [
        7
      ],
      "matrix": [
        0.027185357590312469,
        -0.00052697970185046892,
        -0.011159609383005973,
        0,
        0.011172044986815824,
        0.00128231721769238,
        0.02715509767734909,
        0,
        -8.853991879390164e-10,
        -0.029358750168350902,
        0.0013863783945777398,
        0,
        0.53130638599395752,
        0.33058762550354004,
        0.75376230478286743,
        1
      ],
      "name": "Sphere.004_1"
    },
    {
      "mesh": 1,
      "name": ""
    },
    {
      "children": [
        9
      ],
      "matrix": [
        0.027185357590312469,
        -0.00052697970185046892,
        -0.011159609383005973,
        0,
        0.011172044986815824,
        0.00128231721769238,
        0.02715509767734909,
        0,
        -8.853991879390164e-10,
        -0.029358750168350902,
        0.0013863783945777398,
        0,
        0.5141826868057251,
        0.16414955258369446,
        0.76866674423217773,
        1
      ],
      "name": "Sphere.003_2"
    },
    {
      "mesh": 2,
      "name": ""
    },
    {
      "children": [
        11
      ],
      "matrix": [
        0.027520666532725727,
        0.00048671729605678749,
        0.010307001327681408,
        0,
        -0.010318486812275679,
        0.001298133971655612,
        0.027490033368425069,
        0,
        2.0891193330874434e-10,
        -0.029358750160147315,
        0.0013863785683020211,
        0,
        -0.50082874298095703,
        0.50568407773971558,
        0.75820726156234741,
        1
      ],
      "name": "Sphere.002_3"
    },
    {
      "mesh": 3,
      "name": ""
    },
    {
      "children": [
        13
      ],
      "matrix": [
        0.027520666532725727,
        0.00048671729605678749,
        0.010307001327681408,
        0,
        -0.010318486812275679,
        0.001298133971655612,
        0.027490033368425069,
        0,
        2.0891193330874434e-10,
        -0.029358750160147315,
        0.0013863785683020211,
        0,
        -0.52560257911682129,
        0.33196035027503967,
        0.76641082763671875,
        1
      ],
      "name": "Sphere.001_4"
    },
    {
      "mesh": 4,
      "name": ""
    },
    {
      "children": [
        15
      ],
      "matrix": [
        0.027520666532725727,
        0.00048671729605678749,
        0.010307001327681408,
        0,
        -0.010318486812275679,
        0.001298133971655612,
        0.027490033368425069,
        0,
        2.0891193330874434e-10,
        -0.029358750160147315,
        0.0013863785683020211,
        0,
        -0.50217068195343018,
        0.16441662609577179,
        0.77432256937026978,
        1
      ],
      "name": "Sphere_5"
    },
    {
      "mesh": 5,
      "name": ""
    },
    {
      "children": [
        17,
        18
      ],
      "matrix": [
        1,
        0,
        0,
        0,
        0,
        0.047169338273908346,
        0.99888690727569429,
        0,
        0,
        -0.99888690727569429,
        0.047169338273908346,
        0,
        -0.0021705650724470615,
        0.32190406322479248,
        0.83102983236312866,
        1
      ],
      "name": "Plane_Plane.002_6"
    },
    {
      "mesh": 6,
      "name": ""
    },
    {
      "mesh": 7,
      "name": ""
    },
    {
      "children": [
        20
      ],
      "matrix": [
        1,
        0,
        0,
        0,
        0,
        0.047169338273908346,
        0.99888690727569429,
        0,
        0,
        -1.0336776361529583,
        0.048812222615723586,
        0,
        0,
        0.27204081416130066,
        -0.44016113877296448,
        1
      ],
      "name": "headband_Circle_7"
    },
    {
      "mesh": 8,
      "name": ""
    }
  ],
  "scene": 0,
  "scenes": [
    {
      "name": "OSG_Scene",
      "nodes": [
        0
      ]
    }
  ]
}

